<svg width="38" height="38" viewBox="0 0 38 38" fill="none" xmlns="http://www.w3.org/2000/svg">
<path d="M19.0001 0.599976C8.8553 0.599976 0.600098 8.85518 0.600098 19C0.600098 29.1448 8.8553 37.4 19.0001 37.4C29.1449 37.4 37.4001 29.1448 37.4001 19C37.4001 8.85518 29.1449 0.599976 19.0001 0.599976ZM25.9681 24.832C26.2801 25.144 26.2801 25.656 25.9681 25.968C25.8081 26.12 25.6081 26.2 25.4001 26.2C25.1921 26.2 24.9921 26.12 24.8321 25.968L19.0001 20.136L13.1681 25.968C13.0081 26.12 12.8081 26.2 12.6001 26.2C12.3921 26.2 12.1921 26.12 12.0321 25.968C11.7201 25.656 11.7201 25.144 12.0321 24.832L17.8641 19L12.0321 13.168C11.7201 12.856 11.7201 12.344 12.0321 12.032C12.3441 11.72 12.8561 11.72 13.1681 12.032L19.0001 17.864L24.8321 12.032C25.1441 11.72 25.6561 11.72 25.9681 12.032C26.2801 12.344 26.2801 12.856 25.9681 13.168L20.1361 19L25.9681 24.832Z" fill="#737373"/>
</svg>
