<svg width="55" height="61" viewBox="0 0 55 61" fill="none" xmlns="http://www.w3.org/2000/svg">
<path d="M0.478875 23.216L8.627 28.3011C8.8589 28.4455 9.13899 28.4909 9.40499 28.4273C9.67052 28.3633 9.8997 28.1958 10.0402 27.9615L11.2038 26.0251V59.983C11.2038 60.2527 11.3111 60.5115 11.502 60.7022C11.693 60.8928 11.9522 61 12.2223 61H42.7778C43.0478 61 43.307 60.8928 43.498 60.7022C43.689 60.5115 43.7963 60.2527 43.7963 59.983V26.0251L44.9598 27.962V27.9615C45.1003 28.1958 45.3295 28.3633 45.595 28.4273C45.861 28.4909 46.1411 28.4455 46.373 28.3011L54.5212 23.216C54.939 22.955 55.11 22.4328 54.9272 21.9756L49.7886 9.14843C49.0607 7.34139 47.6261 5.90897 45.8164 5.18207L43.1733 4.12691C43.1733 4.12691 33.8244 0.00166145 33.8211 0.00119653C33.7888 -0.00561388 21.1065 0.0184499 21.0774 0.0279842C21.072 0.0298003 11.8266 4.12697 11.8266 4.12697L9.18349 5.18257V5.18303C7.37379 5.90947 5.93925 7.34189 5.21127 9.14939L0.0727139 21.9766C-0.110072 22.4333 0.0613469 22.955 0.479213 23.2161L0.478875 23.216ZM41.7596 58.9662H13.2412V56.9322H41.7596V58.9662ZM34.63 2.56071L36.6561 3.45968C36.5074 6.62429 34.7305 9.48681 31.9587 11.0278C29.1869 12.5688 25.814 12.5688 23.0421 11.0278C20.2702 9.48681 18.4933 6.62417 18.3447 3.45968L20.3708 2.56071V3.02972C20.3708 5.57319 21.7299 7.92326 23.9356 9.19493C26.1413 10.4666 28.8595 10.4666 31.0652 9.19493C33.2709 7.92326 34.63 5.57319 34.63 3.02972V2.56071ZM32.593 2.0127V3.02972C32.593 4.84629 31.6222 6.52524 30.0467 7.43334C28.4712 8.34185 26.5296 8.34185 24.9541 7.43334C23.3786 6.52529 22.4078 4.84629 22.4078 3.02972V2.0127H32.593ZM7.1033 9.90371C7.62302 8.61297 8.64749 7.59002 9.94014 7.07105L12.601 6.00818C12.6128 6.00364 12.6246 5.99865 12.6364 5.9932L16.3732 4.33459C16.8038 7.99678 19.0136 11.2117 22.2806 12.9293C25.548 14.6473 29.4529 14.6473 32.7204 12.9293C35.9873 11.2117 38.1972 7.99667 38.6278 4.33459L42.3649 5.9932C42.3767 5.9982 42.3885 6.00319 42.4004 6.00818L45.0612 7.07105C46.3535 7.59 47.3783 8.61297 47.898 9.90371L52.7201 21.9417L46.1734 26.0274L44.8944 23.899L49.4131 21.1912C49.8955 20.9024 50.0519 20.2777 49.7628 19.796C49.4731 19.3142 48.8475 19.1581 48.3655 19.4473L43.8467 22.1551L43.6517 21.8305C43.4162 21.4386 42.9478 21.2516 42.5063 21.3737C42.0653 21.4954 41.7597 21.8963 41.7597 22.3535V54.898H13.2412V22.3535C13.2412 21.8963 12.9357 21.4954 12.4946 21.3733C12.0536 21.2511 11.5848 21.4382 11.3493 21.8305L11.1542 22.1551L6.63547 19.4473V19.4468C6.1535 19.1581 5.52784 19.3142 5.23818 19.7955C4.949 20.2772 5.10542 20.902 5.58784 21.1912L10.1066 23.899L8.82754 26.0274L2.28087 21.9422L7.1033 9.90371Z" fill="#737373"/>
</svg>
