<svg width="66" height="66" viewBox="0 0 66 66" fill="none" xmlns="http://www.w3.org/2000/svg">
<circle cx="33" cy="33" r="33" fill="#C4C4C4"/>
<path d="M17.6041 18.5172C18.6863 18.5312 19.7303 18.898 20.5737 19.5548L20.7397 19.6901C21.5555 20.3856 22.1109 21.3251 22.323 22.358L22.361 22.5656L22.361 22.5666L22.6564 24.407L22.7236 24.8212L44.1569 25.134L44.3053 25.1401C45.0442 25.1915 45.7315 25.5344 46.2096 26.0908L46.2384 26.1244C46.7233 26.7001 46.9395 27.4457 46.8392 28.1832L46.8348 28.2203L46.0284 33.6857C45.8648 34.764 45.3336 35.755 44.5223 36.497L44.3562 36.6411L44.3561 36.642C43.4519 37.3972 42.2975 37.8053 41.1076 37.7891L24.7724 37.5507L24.8664 38.139L25.093 39.5468C25.2104 40.2788 25.8444 40.8096 26.5814 40.8196L26.5814 40.8206L43.5102 41.0677C43.8551 41.0728 44.1155 41.3494 44.1109 41.6673C44.1067 41.9456 43.9007 42.186 43.6181 42.2383L43.493 42.2482L42.2421 42.2299L42.9088 43.0591C43.2167 43.442 43.3992 43.9047 43.4364 44.3863L43.4431 44.5944C43.436 45.1656 43.2267 45.7151 42.8539 46.1504L42.6843 46.3296C42.2051 46.7882 41.5576 47.0427 40.8848 47.0329C40.2962 47.0242 39.7332 46.814 39.2897 46.4451L39.1075 46.2774C38.6425 45.8055 38.3887 45.1735 38.3997 44.5208C38.4104 43.9656 38.614 43.429 38.9786 43.0017L38.5985 42.6768L38.6058 42.1769L28.5805 42.0305L29.2394 42.8576C29.5949 43.3036 29.7821 43.8525 29.7754 44.4115L29.7602 44.6515C29.6977 45.2117 29.4413 45.7331 29.0364 46.1304L28.8543 46.2928C28.4078 46.6526 27.8498 46.8511 27.2746 46.8567L27.0267 46.8472C26.4483 46.7972 25.9088 46.5541 25.4954 46.1647L25.3271 45.9893C24.9516 45.559 24.74 45.0188 24.7214 44.4598L24.7249 44.2196C24.7677 43.5768 25.0647 42.9737 25.5552 42.5411L26.1359 42.029L25.4315 41.7101C24.6617 41.3615 24.1066 40.6845 23.9199 39.8851L23.8881 39.7245L21.1561 22.7473C21.0216 21.9033 20.5877 21.1351 19.9337 20.5778L19.9347 20.5778C19.3624 20.0899 18.6532 19.7907 17.907 19.7161L17.5859 19.6987L17.582 19.6987C17.45 19.698 17.323 19.6595 17.2154 19.5908L17.114 19.5112L17.0314 19.4162C16.9828 19.3482 16.9475 19.2722 16.9282 19.192L16.9114 19.0697L16.9115 19.0677L16.9179 18.9624C16.9292 18.8931 16.9545 18.8263 16.993 18.7662L17.0607 18.6812C17.1379 18.6023 17.2389 18.5481 17.3491 18.5262L17.4616 18.5152L17.6041 18.5172ZM27.765 43.1711C27.3446 42.9934 26.8642 43.0472 26.4972 43.3059L26.348 43.4288C26.0162 43.7462 25.8814 44.211 25.9854 44.6492L26.0442 44.8346C26.1749 45.1578 26.4287 45.4022 26.7362 45.5343L26.7347 45.6378L27.2356 45.6441C27.9461 45.653 28.5441 45.0931 28.5551 44.3742L28.5551 44.3732C28.5613 43.913 28.3209 43.4938 27.9385 43.2596L27.7659 43.1711L27.765 43.1711ZM41.4334 43.3706C41.0131 43.1929 40.5327 43.2467 40.1657 43.5054L40.0164 43.6283C39.6847 43.9457 39.5499 44.4105 39.6538 44.8487L39.7127 45.0341C39.8434 45.3573 40.0972 45.6017 40.4047 45.7338L40.4032 45.8373L40.9041 45.8436C41.6146 45.8525 42.2126 45.2926 42.2236 44.5737L42.2236 44.5727C42.2297 44.1125 41.9893 43.6933 41.607 43.4591L41.4344 43.3706L41.4334 43.3706ZM23.0084 26.5921L24.5145 35.952L24.5807 36.3661L41.1239 36.6075C41.9016 36.6192 42.6607 36.3873 43.2939 35.9497L43.5576 35.7504C44.1954 35.2191 44.6303 34.4895 44.792 33.6832L44.8207 33.5215L44.8207 33.5186L45.6282 28.0454L45.6293 28.0406C45.6884 27.6101 45.5576 27.1764 45.2736 26.8477C45.0253 26.5603 44.6804 26.3771 44.3075 26.3277L44.1465 26.3146L22.9134 26.0047L23.0084 26.5921Z" fill="white" stroke="white"/>
</svg>
