<svg width="51" height="23" viewBox="0 0 51 23" fill="none" xmlns="http://www.w3.org/2000/svg">
<path d="M50.4581 1.21477C50.1336 1.10608 49.7757 1.21655 49.5694 1.48934C45.585 6.74854 39.608 3.26754 35.6719 0.960087L35.5325 0.88052H35.5328C34.4873 0.265659 33.2877 -0.0383584 32.0753 0.00387088C30.8629 0.0461001 29.6875 0.433321 28.6875 1.11926L28.6157 1.17502C28.5588 1.20983 28.5043 1.2482 28.4524 1.29046L27.8387 1.75578C24.2727 4.49305 19.8383 7.88239 11.5551 9.0958C5.97702 9.91917 0 11.28 0 17.0325V22.0491C0 22.2601 0.0839569 22.4626 0.233371 22.6118C0.382784 22.7609 0.585562 22.8448 0.796875 22.8448L50.2031 23C50.4137 23 50.6154 22.9172 50.7649 22.7691C50.9157 22.6199 51 22.4164 51 22.2043V1.97084C51.0007 1.62878 50.7826 1.32436 50.4582 1.21496L50.4581 1.21477ZM34.7273 2.25304L34.8668 2.33652C38.389 4.39315 44.656 8.0532 49.4054 3.98359V16.2368H19.2917C19.1284 14.3112 18.2636 11.5065 15.8851 9.82785C16.2835 9.72058 16.682 9.60905 17.0804 9.4936L18.3276 11.6937C18.5027 11.9967 18.7549 12.2482 19.0587 12.4226C19.3621 12.5974 19.7065 12.689 20.0569 12.6883C20.4056 12.6897 20.7481 12.5977 21.0492 12.4215C21.5066 12.158 21.8403 11.7232 21.9773 11.2139C22.1139 10.7041 22.0424 10.1614 21.778 9.70455L20.8339 8.08122C21.3199 7.8585 21.7862 7.63153 22.2323 7.40099L23.1089 8.90884C23.3696 9.3628 23.799 9.69562 24.3042 9.83554C24.4728 9.88278 24.6471 9.90694 24.8221 9.90729C25.1711 9.90694 25.5137 9.81352 25.8144 9.63662C26.2719 9.37306 26.6056 8.93828 26.7425 8.42894C26.8791 7.91922 26.8076 7.37648 26.5433 6.91964L25.6347 5.34822C26.0769 5.04985 26.4991 4.74756 26.9058 4.4492L27.8902 6.124C28.0652 6.42699 28.3174 6.67848 28.6212 6.85288C28.9247 7.02765 29.269 7.11929 29.6194 7.11858C29.9681 7.12 30.3107 7.028 30.6117 6.85182C31.0692 6.58826 31.4029 6.15348 31.5398 5.64414C31.6764 5.13441 31.6049 4.59168 31.3406 4.13483L30.1691 2.10594C31.6156 1.38167 33.331 1.43708 34.7273 2.25299L34.7273 2.25304ZM19.3599 8.70574L20.3958 10.4998V10.5002C20.4556 10.5933 20.4738 10.7073 20.4457 10.8146C20.4176 10.9218 20.346 11.0128 20.2482 11.065C20.0579 11.173 19.816 11.1072 19.7064 10.9179L18.6029 9.01224L19.3599 8.70574ZM24.3045 6.21536L25.1732 7.71502V7.71538C25.2333 7.80808 25.2518 7.92175 25.2248 8.02903C25.1974 8.13594 25.1266 8.22723 25.0295 8.28016C24.8392 8.38814 24.5972 8.32242 24.4877 8.1331L23.6271 6.62916C23.8623 6.49382 24.0853 6.35459 24.3045 6.21534L24.3045 6.21536ZM28.799 3.0327L28.8389 3.005L29.9545 4.93059C30.0146 5.0233 30.0331 5.13696 30.0061 5.24424C29.9787 5.35116 29.9079 5.44245 29.8108 5.49537C29.6204 5.60335 29.3785 5.53764 29.269 5.34831L28.2052 3.50619C28.4084 3.33925 28.6076 3.18402 28.8029 3.0327H28.799ZM11.806 10.6672C12.3759 10.5798 12.9337 10.4881 13.4716 10.3848C16.7903 11.4948 17.5314 14.7371 17.6868 16.2368H1.64552C2.0557 13.2292 4.94048 11.6777 11.8054 10.6671L11.806 10.6672ZM1.59416 21.2572V17.828H49.4067V21.4085L1.59416 21.2572Z" fill="#737373"/>
</svg>
